<?xml version="1.0" standalone="no"?>
<!DOCTYPE svg PUBLIC "-//W3C//DTD SVG 20010904//EN"
 "http://www.w3.org/TR/2001/REC-SVG-20010904/DTD/svg10.dtd">
<svg version="1.0" xmlns="http://www.w3.org/2000/svg"
 width="1080.000000pt" height="1080.000000pt" viewBox="0 0 1080.000000 1080.000000"
 preserveAspectRatio="xMidYMid meet">

<g transform="translate(0.000000,1080.000000) scale(0.100000,-0.100000)"
fill="#000000" stroke="none">
<path d="M2350 8850 c-151 -44 -292 -84 -313 -90 l-37 -11 2 -3965 3 -3965
1159 0 c638 1 1160 2 1161 3 2 3 -8 1559 -17 2986 l-3 372 900 0 900 0 2 -293
c1 -160 5 -916 9 -1679 l6 -1388 1089 0 1089 0 0 3855 c0 3665 -1 3855 -17
3855 -10 0 -349 25 -753 56 l-735 56 -345 -54 -345 -53 -3 -1422 c-2 -1418 -2
-1423 18 -1423 20 0 20 6 20 1384 0 762 3 1387 8 1389 4 2 133 -6 287 -19 154
-13 292 -23 308 -23 l27 -1 0 -1370 0 -1370 -532 0 c-293 0 -847 3 -1230 7
l-698 6 0 1564 c0 859 -2 1563 -4 1563 -2 0 -369 25 -815 55 -446 30 -824 55
-839 54 -15 0 -151 -36 -302 -79z m1069 -10 c410 -28 746 -52 748 -54 2 -1
-111 -35 -249 -73 l-253 -71 -500 31 -500 32 -3 93 c-1 50 1 92 5 92 4 0 343
-23 752 -50z m-799 -45 l0 -85 -27 0 c-25 0 -451 28 -463 31 -7 1 463 137 478
138 9 1 12 -22 12 -84z m1650 -1565 l0 -1540 -290 0 -290 0 2 1458 3 1457 280
82 c154 44 283 81 288 82 4 1 7 -692 7 -1539z m-1907 1454 c138 -9 253 -17
255 -18 6 -7 12 -1628 17 -4578 l5 -3228 -300 0 -300 0 0 3920 0 3920 35 0
c20 0 149 -7 288 -16z m807 -49 c239 -15 445 -28 458 -31 l22 -4 0 -1475 0
-1475 393 0 c217 0 928 -3 1580 -7 l1187 -6 0 1386 0 1387 38 0 c20 0 179 -11
352 -25 173 -14 327 -25 343 -25 l27 0 0 -3750 0 -3750 -339 0 -339 0 -6 523
c-3 287 -9 1042 -12 1677 -3 635 -9 1157 -12 1160 -4 3 -728 4 -1609 2 l-1603
-2 0 -1680 0 -1680 -484 0 -484 0 -6 2442 c-4 1344 -8 3099 -9 3901 l-2 1457
35 0 c19 0 231 -11 470 -25z m3597 -172 c-4 -3 -528 34 -567 40 -8 2 39 11
105 21 66 11 197 31 290 45 l170 26 3 -63 c2 -36 1 -66 -1 -69z m391 112 c180
-14 346 -27 370 -31 l42 -5 0 -70 0 -69 -42 1 c-24 0 -194 13 -378 27 l-335
27 -3 73 c-2 47 1 72 8 72 6 0 158 -11 338 -25z m772 -60 c129 -9 243 -20 253
-23 15 -6 -517 -93 -560 -92 -9 0 -13 21 -13 71 l0 71 43 -5 c23 -4 148 -13
277 -22z m330 -3860 l0 -3795 -325 0 -325 0 0 3745 0 3745 23 5 c32 8 577 93
605 94 l22 1 0 -3795z m-3986 -2062 c3 -874 9 -1621 11 -1660 l6 -73 -301 0
-300 0 0 1660 0 1660 289 0 289 0 6 -1587z m2560 380 c3 -665 9 -1412 12
-1661 l6 -452 -345 0 -345 0 -6 1448 c-3 796 -9 1543 -12 1660 l-6 212 345 0
345 0 6 -1207z"/>
</g>
</svg>
