<?xml version="1.0" standalone="no"?>
<!DOCTYPE svg PUBLIC "-//W3C//DTD SVG 20010904//EN"
 "http://www.w3.org/TR/2001/REC-SVG-20010904/DTD/svg10.dtd">
<svg version="1.0" xmlns="http://www.w3.org/2000/svg"
 width="1080.000000pt" height="1080.000000pt" viewBox="0 0 1080.000000 1080.000000"
 preserveAspectRatio="xMidYMid meet">

<g transform="translate(0.000000,1080.000000) scale(0.100000,-0.100000)"
fill="#000000" stroke="none">
<path d="M2350 8850 c-151 -44 -292 -84 -313 -90 l-37 -11 2 -3965 3 -3965
335 0 c184 0 708 0 1164 1 l828 0 -6 198 c-3 108 -9 857 -12 1664 l-6 1468
894 0 895 0 6 -202 c4 -112 7 -395 7 -629 0 -234 3 -892 7 -1462 l6 -1037
1089 0 1088 0 0 3855 c0 3665 -1 3855 -17 3855 -10 0 -349 25 -753 56 l-735
56 -345 -54 -345 -53 -3 -1416 -2 -1416 -113 -6 c-61 -4 -464 -7 -894 -7
l-783 0 0 1565 c0 861 -2 1565 -4 1565 -2 0 -369 25 -815 55 -446 30 -824 55
-839 54 -15 0 -151 -36 -302 -79z m1145 -15 c380 -25 709 -48 733 -51 l42 -5
0 -1565 0 -1564 623 0 c343 0 915 3 1270 7 l647 6 0 1469 c0 958 3 1468 10
1468 5 0 327 -25 715 -55 387 -30 709 -55 715 -55 7 0 10 -1201 10 -3815 l0
-3815 -695 0 -695 0 0 1664 c0 1323 -3 1665 -12 1667 -7 2 -591 2 -1298 -1
l-1285 -5 3 -1600 c1 -880 5 -1628 8 -1662 l6 -63 -805 0 -805 0 -6 2442 c-3
1344 -7 3151 -9 4017 l-2 1573 70 -6 c39 -3 381 -26 760 -51z m-871 -617 c3
-365 8 -2169 11 -4010 l5 -3348 -300 0 -300 0 0 3930 0 3929 38 10 c20 6 145
42 277 80 132 38 245 70 251 70 9 1 13 -179 18 -661z m4146 -1068 l0 -1450
-315 0 -315 0 0 1399 0 1399 68 11 c37 6 177 29 312 50 135 21 246 39 248 40
1 0 2 -651 2 -1449z m60 -4645 l0 -1645 -334 0 -334 0 -6 1448 c-3 796 -8
1536 -12 1645 l-5 197 345 0 346 0 0 -1645z"/>
</g>
</svg>
